<svg xmlns="http://www.w3.org/2000/svg" width="294" height="252" viewBox="0 0 294 252">
    <g fill="none" fill-rule="evenodd" stroke="#74808E" stroke-linejoin="round">
        <path d="M236.994 21.838l-.525 5.038.467 1.643 1.08 1.26 1.344 1.013.233 1.615-.613 1.561-1.051 1.561-2.628 2.656.555 3.916-1.022 8.735.613 2.601-.117 1.123-1.43 3.067-.118 1.013.643.219.817-.137.993.356.701.849.467.903.117.959-2.424 3.203-.992 1.917-.643.74-.496.848-.117 2.19.146 2.191-.73 1.78-1.49 1.205L225.053 78l-1.373 1.588-.321 2.081.175 2.163-.233.904-.584.794-.73.63-.935.274.321 2.272-1.78 3.067-.03 1.15.496 1.123.789.986.934.684 1.051.438.906.63 1.664 2.793 1.752 1.15 3.913.22 3.095-2.3 2.482-3.451 1.372-1.232 1.782-.438 1.956-.22 1.752-.82.672-.795.438-.931.584-.465.905-.055 1.43-1.37 1.285-1.642 2.015-.466 2.103.301 1.664.767 1.372 1.26 1.402.958 1.664.383 1.227-.711.847-3.478 1.284-3.478.322-1.807-.03-1.78.205-1.478.817-.11 1.402.603.788.11 3.534-.822 1.43-.11.176-.41-.176-.986.73-1.315.935-.575 1.255-2.519.789-1.095.905-.986.934-.794h.76l.963.301 1.694.767.525.082 1.49-.767.642-.739 1.139-.301 2.16-2.109.439-.273 1.43-.466 1.898-1.479 1.665-.739.292-.465.496-1.808v-.657l-.438-.958-1.635-1.424-.03-.22.964-1.478.176-.438.496-2.629.263-.821.029-1.342-.496-1.122-.03-.52.35-.576.41-1.862.788-1.122-.467-.685-.847.383-1.197-1.26-.497-.355-.876-1.479.117-.383-.759-.63-1.548-.41-5.022-.165-.7-.274-.234-.41.116-1.589-.233-2.574-2.92-13.828-11.359-16.292-6.015-.247-.964.302.03.438-.38.274-1.227 1.45.088.658-.642.41.38.192-.439.575-1.869.685.059-.685-.234-.054-.876.493-.467.027-.146-.52-1.285.3-2.16 1.15-.672.138-.701-.164-.088.41-.905-.246.701.74-.321.273-.73 1.15-.234-.027-.263.903-.934.192-.613.794-1.227.602-.759.658-.7-.63-.585.93-.087-.136-.993.958-.526 1.287.38.165-.263.848-.934.384-.409 1.807-.321.164-1.431-.356zM118.5 205.299l-1.196.055-1.14.191-.087-.082-.146-.137-1.635.931-1.139 1.534.526.465 1.226.685.701.164.934.876.322 2.903-.234 1.205-.204.356.438 1.177.116 2.136-.175.602-.847 1.862-.934 1.123-1.752 5.476.496.959-.146 1.26-2.482 4.107.322 1.999.992.328 2.015-.438h.964l.934.383 1.285.028 1.635 1.177-.175-1.068-.555-1.04.234-.904-.321-1.26.525-.93.789-.85.146-1.177-.146-1.204.087-1.123.35-1.616-.32-.985.058-.52 1.08-.33 1.256.192.7-.492.147-.493-.234-.493-.613-.192.029-.356.584-1.424-.146-1.78.642-.492.935.164 1.197.903.847 1.37 1.372.794 1.285 1.068 1.168.219.292-.904-1.197-2.41-.555-2.738.204-1.451-.408-1.178-.906-.356-.817-.63-.38-.793-.204-.904-1.314-.657-3.533-.055-1.46-.767.204-1.67-.03-1.506z"/>
        <path d="M127.757 221.318l-1.372-.794-.847-1.37-1.197-.903-.935-.164-.642.492.146 1.78-.584 1.424-.03.356.614.192.234.493-.146.493-.701.492-1.256-.191-1.08.328-.059.52.322.986-.35 1.616-.088 1.123.146 1.204-.146 1.178-.789.849-.525.93.32 1.26-.233.904.555 1.04.175 1.068.292.657.438.712.234.986-.03.63.41-.22-.439 1.206-.058.657.35.465.35 2.492 2.162.164.671.439 1.49.082.525-.137-.642-.466.846.082 4.176-.52 1.548-.055.817-.465 1.49.164h2.073l1.401.165 1.548-.165.321-.794 1.08-1.095-.058-.603-.76-.438-.087-.383.321-.958-.32-.438-.351-1.123-.146-.137-1.227-.794-2.89-3.176-.876-1.315-.672-1.287-.35-1.451.175-3.176-.409-.493-1.08-.74-.643-.164-1.43.247-1.169-1.972.672-.821zM115.026 221.345l.934-1.123.847-1.862.175-.602-.116-2.136-.438-1.177.204-.356.234-1.205-.322-2.903-.934-.876-.7-.164-1.227-.685-.526-.465-.993.219-1.022.356-2.19-.493-1.138.137-1.11.274-.905.602-.321 1.095-.964 2.081-.964.302-1.05-.493-1.899.575-1.635 1.369-.263.904-.759 4.107.175.575.876.055.876-.22 1.022 1.123-.204 1.835-.35.849.029.903.992 1.096 2.6 1.752 3.445.274 3.066-.329 1.285.384.788-.082.73-.22z"/>
        <path d="M118.238 245.524l-1.168-.603-1.168.383-.321.959.35.192 1.81.11 3.388-.63.35-.658-.263-.082-2.978.329zm-4.73-.575l-.73-.931-1.198 2.163-.788.876-.234.493.234.301.847.082 2.16-.465.906-.63.292-1.862-1.11.11-.38-.137zm-14.542-31.134l-.788-.055-.73-.684-.643 3.012-.467 1.177-.321 1.588-.175.301-1.548 1.37.409 1.122 2.277.22.847 1.15-.467.711-.467.11-.292.712-.818 1.068-1.139.985-.32.85-.147 1.177-.204.547-.438.247-.409 1.424v.547l.526 1.068-1.256 2.218-.263.876v1.068l.555.794.905.52-.117.494.263.794.76-.083 2.014-.794 1.519 1.014.204.93.38.85.7.547.789.383.292.439.321-.439-.613 4.026.233.191-.116 2.355.554.329 2.658-.137.584-.356-.818-.822.058-.602-.584-1.177-.496-2.547.73-1.095-.467-.822-.847-.794-.409-2.355-.7-.794-.293-1.287h.847l.35.712.585-.055-.497 1.014.438 2.245.438.876 1.11.931-.672 1.37.321 1.97.38.685.409.22-.175.437.525 1.178.555-.22 1.08.412 1.46.164.234-.11-.117-.903-.876-1.835-.058-.602.233-1.808-1.168-.711-.7-1.287-.176-.767.993 1.287 1.197.684-.554-1.56-.234-1.233.117-.41.555 1.013.467-.657.525 2.135-.292 1.233-.262.191.525 1.15.205 1.972 1.138.438-.262-.383-.059-.904.321-.301.059.876.321.301.467-.328.497.219.408-.192.701-.794.146-.466-.905-1.067.613-.329-.087-.849-.555-.903-1.431-.931-.263-.904-.438-.247.292-.985.847 1.862.438.383.818.247.35-.165.438 1.479 1.577 1.807.671.986 1.08-.192.06-.63-.672-.137-.73-.492.233-1.068.438-.028 1.168.575 1.256.165.847.492.525.055.234-.547.671.191.497-.356.409-.766-.263-1.835.263-.465.146-.11.029-.63-.234-.986-.438-.712-.292-.657-1.635-1.177-1.285-.028-.934-.383h-.964l-2.015.438-.992-.328-.322-2 2.482-4.107.146-1.26-.496-.958-.73.22-.788.082-1.285-.384-3.066.329-3.446-.274-2.599-1.752-.992-1.096-.03-.903.35-.85.205-1.834-1.022-1.122-.876.219-.876-.055-.175-.575.76-4.107.262-.904z"/>
        <path d="M100.397 242.512l-.292-.439-.789-.383-.7-.548-.38-.848-.204-.931-1.519-1.014-2.015.794-.759.083-.263-.794.117-.493-.905-.52-.555-.795v-1.068l.263-.876 1.256-2.218-.526-1.068v-.547l.409-1.424.438-.247.204-.547.146-1.178.321-.849 1.14-.985.817-1.068.292-.712.467-.11.467-.712-.847-1.15-2.277-.219.058.575-.38.247-3.182.493-.38.136-1.11 1.917-1.46.11-.467.191.03 1.78-3.913 2.054-1.665-.63-.846-.794-.322.164-.788 1.205-.672.384-1.197.054-1.372.52-1.723 1.123-1.402-.027-1.722-1.123-1.11-.383-1.606-1.232.38 1.013-.76-.85-1.022-.41-.32.849 1.05 2.574.205 1.232.7 2 .789.93.204.63-.584-.22 1.022 2.054 1.08.685v.493l-.35-.164.234 1.095.7 1.013 2.278 2.245 1.519 1.698.963.383-.175.356.993.603 1.051-.11-.233.657.292.63 1.927 1.37.38.027.175-.712-.35-.904.788-.082.408 1.04-.175 1.041.76.164.846.466.059-.575-.438-.986.204-1.698.818.247-.088 1.095.496-.164-.408.986-.03 1.26.614.437.35-.356.613.165.905-.055.818-.493h-.672v-.356l.497-.356.38-1.56-.701-1.452.438.11.73.766-.205-.465-.146-1.835h.175l.38 1.26.117 1.396 1.693-1.068-1.576 1.917-.497 1.123.584.712.467-.192 1.14-.027 1.926-.548-.204-.493.672-.164.671.493 1.402.137 1.226-.302.059-.876.32-.986.088-1.068-.262-.903-.672-.575.73-.082.38.657.146 2.957.408.986 1.87-.438v-.301l-.848-2.383-.175-1.588.497-.547.146.328.146 1.944.233.575.175-1.04-.175-.876.146-1.178.38-1.095zM155.147 152.424l-.876.219-2.687-.082-1.78-.41-4.936-1.753-3.212.41-1.372 1.205-.38 1.835.584 1.862 1.168 2.683.146.904-.292.438-.759-.301-.613-.493-1.139-.657-.555-.657-2.277-.548-1.986-.959-2.044-.383-1.635-.93-.847-.247-1.723-.22-2.014-.63-1.577-.163-1.227-.329-.146 1.479.088 1.369.292 1.314.73 1.15.73.767.496.93.088.932-.03 3.012.38 3.094.292 1.013.789.466.934-.137.613.438-.759 1.67-.058.85-.409 2.08-1.022 1.78-3.241 1.862-.38 1.04-.058 1.178-.672.219-.788-.383-1.051-.904-.935-.493.263 1.04.934 2.082.701.876.818.821.905.712.934.466.993-.137.701-.575.876-.22 1.022.521.613 1.013.292 1.26v1.26l-.847 2.436.818 1.78 1.694 1.096 1.05-1.534.234-2.19.38-.877 2.015-.137.934-.246.905-1.287 1.11-.11.876-.657.263.438.496 1.862.584.685.789-.082.73-.438.671-.74.701-.575 1.956.165 1.08-.028 1.023-.274.817-.465.41-.74-.234-.985.32-.822 1.578-.657 1.664.165 1.781.657 2.92 1.834.613 1.342-.233 1.56.496.412.643.164 1.401-.027 3.855-.767 2.16 1.15 2.95 3.642 1.168 2.19.992-.383.876-.657.555-1.15.38-.329.7-.164h.322l.555-2.52.262-4.38-.087-1.643.759-4.519.73-1.506.993-1.314 1.226-.93 1.08-1.069.147-3.067.934-3.094-1.11-3.012-2.51-2.382-2.19-2.875-2.804-2.027-3.708-.465-3.767.11-.964.219-1.635.766-.788.192-.292-.575 1.343-2.136z"/>
        <path d="M138.561 188.322l.35 1.424.935 1.123.847.766.496.767.38 1.533.525.685.088.821-1.518.904-.176.876.468.767-.205 1.752-1.372 1.48-1.022 1.56-.438 1.944-.409.685-.7-.329h-.643l-.701 1.068-1.139.548-.438.465-.613.027-.496-1.177-.906-.274-.992.329-.292.657.408.821-.292 1.15-.876 1.397-.32.356.058 1.232-.935 1.588-.087.657.408 1.178-.204 1.451.555 2.738 1.197 2.41-.292.904-1.168-.22-.672.822 1.168 1.972 1.431-.247.643.164 1.08.74.409.493-.175 3.176.35 1.451.672 1.287.876 1.315 2.89 3.176 1.227.794-.117-.082-.234-.165-.7-1.095.408-.301-.087-.602-.993-1.67-1.343-1.37v-.137l1.577 1.205.262.548 1.431 1.341.088.63.496.301v.411l.643.603.7.027.555-.438v1.67l1.84.028-.38.93 1.227.22.38-1.67.817-1.452.584.082.496-.301-.263-1.287.876-.904.146-.492 1.314-2.136 1.227-2.766 1.051-.602.175-.329.643-3.532-.263-1.26.847-2.3-.146-1.56.146-.548 1.197-1.506.087-.603-.233-.712-1.519-1.451-.32-.657 1.05-1.287.088-.657-.526-1.397.263-.41.876-.63.73-.85 1.49.22.087-.329 3.65-4.792 3.329-2.847.613-.931.7-1.561.672-.603.964-.027.7-.438.73-1.533.702-.466.146-.055-1.168-2.19-2.95-3.642-2.16-1.15-3.855.767-1.401.027-.643-.164-.496-.411.233-1.56-.613-1.343-2.92-1.834-1.781-.657-1.664-.165-1.577.657-.321.822.233.986-.409.739-.817.465-1.022.274-1.08.028-1.957-.165-.7.575-.672.74-.73.438zM204.174 112.637l-1.694-.438-1.606.302-3.008 1.478-3.066.11-1.314.876.526 1.26.204 1.369-.175 1.67.263 1.944.234.767.38.712.73 2.464-.147 1.56.321 1.616.03.986-.818 1.67-3.854 2.027-5.636 1.451-1.168 1.479-.555.93-1.255 1.644-.672.63-1.752 1.013-1.606 1.232-1.402 1.506-1.576 1.287-1.752.52-1.84.137-1.314-.082-.672 1.123-.992.657-.672.054-2.132-.465-1.78-.767-.585.274-.759 2.054 1.314 1.725.088 1.342.233 1.615-.496.466-3.533 2.519-.847.74-1.343 2.135.292.575.788-.192 1.635-.766.964-.22 3.767-.109 3.708.465 2.803 2.027 2.19 2.875 2.511 2.382 1.11 3.012-.934 3.094-.146 3.067-1.08 1.068-1.227.931-.993 1.314-.73 1.506-.76 4.519.088 1.642-.262 4.382-.555 2.519h.847l2.16-6.572.468-.548 1.518.439.584-.247 5.928-5.367.584-.356.554.493.35 1.917.76.93.7.22 6.279-.082.321-1.342.672-.685.146-1.998.846-2.657.468.63.116 1.26 2.804 1.56 2.014.822.818.575.409 1.013.233 1.205.497 1.123.759.821 2.307.466.817.684.497 1.04.117 3.287.438 1.999.467 1.26.409.383.671.11 3.563-.357.525.137 1.519-.465.467-.466.292-1.67.35-.877.643-.547.963-.11.672-.383.555-.849.7-1.752.234-1.397-.146-.493-.7-1.013.145-.712.438-.657 1.49-1.451 2.306-1.616.555-.082.613-.931 1.022-1.013.613-.274.701.192.467-.685-.32-.657-.964-1.095-1.227-1.862-1.051-.575 1.11-1.096 1.489-2.382 1.43-1.478-.32-1.342-.614-1.37-.321-1.752v-1.725l-1.197-2.985-2.395-2.382-.613-.766-.876-.411-.759.356-1.664 2.08-.789-.081-.671-.712-.993-1.862-1.08-2.766.204-.821 1.343-1.67 1.577-1.507 6.249-7.995 1.635-1.424.204-.849-.117-.958.176-1.808 2.394-5.34-.175-1.806-1.022-1.342-1.548-.767-.847-1.533.088-1.807-.263-.795-.438-.766-.876-1.89-1.401-1.341-1.636-.411-.613-.575-2.277-4.463-8.556.356-2.599-.22zM86.264 135.173L84.6 134.16l-2.658.027-1.372.493-1.752-.11-1.285.028-1.372-1.807-.935-.301-1.43-.028-.38-.137-1.051-1.369-.526-.493-1.46-.93-1.372-.275-1.285-1.095-1.986.028-2.978-.74-.35-1.478-1.168-1.315-1.285-.657-1.285-.93-1.256-.384-1.576.547-1.11.63-.964.329-.759.055-.671-.247-.468-.493.059-2.245-.292-.52-2.687-.931-.204-.384-.263-2.519-2.131-.328-1.782.246-.817-1.451.029-1.944.234-2.082-.41-1.752-.817-.027-.759-.548-8.234-10.214-.701-.602-1.665-.246-3.883.136-2.278.439v.137l-.233.575-1.022.794-.176.438-.146 2.218-.233.52-.789.986-.642 1.232-.438.438-1.46-.164-.934.246-1.752.767-.614.821.526 2.711-.175.685-.789.465h-1.284l-.205.63.146.657-1.489 2.054-.76.438-.466.794-.088.74.555 1.97v1.699l-.643 1.533-.788 2.684-.38.794-.613.438-1.927.465-.76-.438-1.284.055-.7.602-2.19-.137.058.712-.03 1.643-.496 2.985.03 1.26-.556.355-.146.493.497 6.326 1.43-1.287.964.027 1.927-.465 2.366-2.164.554-.219 2.044-1.834 1.46-.548.41.082.758.74.322-.055 2.861-1.37 1.11-.876.963-.52 1.052-.821 5.022-2.684 1.022-.986.234-1.67.613-1.287 1.11-.821 1.167-.137 1.11.547.7.931.556 1.15.934.85 1.08.602 2.891 1.068 1.81.438h.672l1.197-.767.41.986-.848 1.26-.788.492-1.548 1.862-.292 1.588.322 1.589 2.16 5.065.876 1.397.847 3.477.905 1.342 1.198.986.876 1.533.73 2.437.292.548.408.082.41.274 1.576-.082 1.577.164 4.263-.904.964-.41 1.022.027.525.876.73.52 1.402-.191.35.082.292.192.117.438.496.219 1.548-.466 1.606 1.04 1.577.22 1.022-.164.73-.63.117-.822.525-.657.876-.3 2.628-.083-.204-1.56-1.635-1.069-.993-.958-1.022-1.315-.73-1.478.175-.849 2.774-3.697 1.08-1.068.964.411 1.256 1.287 2.452.986 2.395.575 3.387.192 2.686.63.818-.165.496-.63.234-.766.38-2.684.963-3.614 1.051-1.397zM2.022 194.702l5.46 1.068 3.796.192 3.212-.411 2.745.137 1.431-.164.117-.575-.497-.767.38-.493.496-1.15-.175-.794.76-.384.554-.602.672-.164.204 1.424 1.548-.028.876-.493.671-.027 1.198-.41 1.314-.822 1.372-.548 2.044.52-2.015.329-.438.685-1.372.958-.35-.11-2.833.548v.821l-.321.384-.789.301-1.197-.082-.876.821-.292-.903-1.051.356 1.43.876 10.425-.548 6.249.548 5.285 1.04.059-1.478-.672-.247-1.402-.054-.554.137-.76-.603-1.255-.548-.03-.657 1.402-.821.205-.548-.234-.547-.7-.247-.79.164-1.488.931-.701-.602-.263-.958.204-.63.584-.493.263-.685-1.46-.41-14.279.082-.584 1.04-1.343.055-.555-.767-1.693-.794-.76.302-.525 1.725-.73.958-.263 1.26-.35.438-1.431.219-5.344-.247-.7 1.068-.672.466-1.226-.192H2.226z"/>
        <path d="M81.972 72.495l-.847.027-1.227 1.452-.613.52-1.693.301-4.205 1.89-1.606.3h-2.453l-.642-.218-.322-.931-.029-1.013.117-2-.38-.876-.788-.52-.876-1.643-.321-1.944-1.46-.904-1.781-.054-7.184 1.533-3.328 1.56-.41 1.644 1.548 1.232 1.782.767 2.598.52.205.438.993.438.525 1.807.059 1.041-1.168 1.56 1.022 1.315.525 1.698-.642.547-1.723.52-1.635.822-1.694-.246-.759.301-.409 1.725.117 1.944-.088.904.146.876 1.14 1.588.758 1.753-.613 1.725-.7.52-.818.301-2.833.63-.846.301-.263.904v1.04l-.292.712-1.665-.11-.613-.547.38-1.917.146-1.889-1.168-1.095-.38-.904-.087-.986.146-1.944.905-1.67 2.832-1.67.03-.466.613-.657.233-1.78.789-4.655-.059-.63-1.577-.52-2.949-2.026-2.453-.685-2.54.384-6.658.191-1.284-.164-2.745-1.314-2.161-1.424-2.22-.274-.174.192.175.027.204.192-.146 2.08.964 3.26-.03.766-.525 1.369.088.767.613.63.584 1.396.963.356.205.52.146 2.19-.175.685-.847 2v1.34l-.555.96-.38.054-1.547-.849-.993.055-.467.52-1.46 3.396.38 1.068 1.927 2.546-.059.466 2.278-.439 3.883-.136 1.665.246.7.602 8.235 10.214.76.548.817.027.409 1.752-.234 2.082-.03 1.944.818 1.45 1.782-.245 2.131.328.263 2.52.204.383 2.687.93.292.52-.059 2.246.468.493.671.247.76-.055.963-.329 1.11-.63 1.576-.547 1.256.383 1.285.931 1.285.657 1.168 1.315.35 1.478 2.978.74 1.986-.028 1.285 1.095 1.372.274 1.46.931.526.493 1.051 1.37.38.136 1.43.028.935.3 1.372 1.808 1.285-.027 1.752.11 1.372-.494 2.658-.027 1.664 1.013 1.372-.274 1.052-.219 1.518.849.496.082.701.575.613 1.068.643 1.725.525 2.465.555 1.204 2.628 2.027 1.227 1.971 1.693 1.862.409-.465.73-1.588.35.191.059-.986.905-.602.7-.74.322-1.012-1.11-.137-.759-1.561-.292-18.565.088-.712.584-.301 4.526-.192 1.46.493 2.307 2.327 1.284.63 3.417-5.148-.584-.137-.613.192-.176-.41.322-1.15-1.227-1.589.205-.958 1.343-1.014.204-1.04 1.139-1.397-.146-.821-.76-.41-.32-.63.175-.74-.526-.465-.876-.247-.496-.712.525-.438.76-.055.613-.547.058-.959-.496-4.162-1.168-.849-3.621.055-1.81-.219-1.752-.794-1.11-1.506.584-.712.788-.548.672-.848 1.577-1.205.584-.822.058-.903-.73-.493-1.752-.685-.525-.575.32-.93-.058-2.082-1.343-1.205-.847.274-.408-.11-.176-2.108-.204-.493-.76-.328-.875-.055-.789.356.117 1.013-.525.41-.935-.163-.934.191-1.781.876-.76-.164-.32-.794-.643-.465-1.723.41-2.89 2.328-1.286 1.451-.496.876-.642.74-.818.11-.438-.877-.613-.794-.789-.603-.146-.876.35-2.19.322-.877.088-1.204-.41-1.315-.028-.657.116-2.163.205-.657.496-.575.467-.247-.38-1.725-1.868-3.313-1.051-1.424zM34.814 177.095l-.73.055-.789.274-.671.465-1.519.438-3.007.384-1.46-.055.642-1.205.905-1.314-.671-3.286-1.431-.958-.059-1.89-.817-1.26-2.453-.081-1.43.766-.73-.438-.41-1.26-.905-.711-1.022.712-.993 2.573-.963.904-1.373.055-1.343-.493-1.693-1.643-1.11-2.108-.818-1.096-1.022-.903-.467-1.342-.029-.548.905-2.628-.175-2.3-.905.027-.35 1.15-.263 1.314-.672-.11-.438-1.396-.117-2.902-.613-1.232-2.365-.083-2.278 1.67v.11l.497 1.068.876 1.424-.292 4.354.116 1.04.497.959.73.903.525.959-.204 1.533-.526-.137-.496.411.526 6.407-.672 1.698.117.356.993 1.068-.117.301-.847.384-.613.93.058.932.35 1.013.117 1.068-.204 2.163 1.11.657.116 1.479-.876.903-.292.575.205 1.616-.03.547-.525 1.67-.088.521h1.782l1.226.192.672-.466.7-1.068 5.344.247 1.43-.22.351-.437.263-1.26.73-.958.526-1.725.759-.302 1.693.794.555.767 1.343-.055.584-1.04 14.28-.082 1.46.41-.264.685-.584.493-.204.63.263.958.7.602 1.49-.93.788-.165.701.247.234.547-.205.548-1.401.821.029.657 1.255.548.76.603.554-.137 1.402.054.672.247-.059 1.478 1.548.302 2.16 1.013 1.49.082.38-.493-.03-.684-1.372-.63h-.73l-.409-.52 1.168-.274 1.256-.959.73-.821-.234-1.205v-1.862l-.467-.657-.613.301-.38.602-1.051.685-2.453-.383-.7-.904.028-.794.584-1.725 1.198-1.37 2.19-1.697.467-.657.555-3.396-.38-.492-1.84.41-1.05-.191-.848.493-.7-.028-.41-1.478-.32-.63-.789-.74-1.139.055-.934.63-.993.137-.175-1.178-.526-1.095-1.722.876z"/>
        <path d="M81.621 163.212l-1.226-1.998.175-1.014-.76-.356-1.956.384-.438.74-.613.246-.671-.329-.614.383-.554.904-.643.383-1.051 1.205-.321.767-.409 2.464-1.343 3.313-2.57 2.3-1.372-.574-.526-1.808-.584-1.26-1.255-.41-1.723.11-2.687-.192-.905.027-1.723.603v1.04l-1.197.329-1.08.602-.409 1.205-.204 1.232v1.972l-.059 1.834-.263.22-3.095-1.48-.963.302-1.052.876-1.226 2.437-.934.52-.555 3.396-.467.657-2.19 1.698-1.198 1.369-.584 1.725-.029.794.701.904 2.453.383 1.051-.685.38-.602.613-.301.467.657v1.862l.234 1.205-.73.821-1.256.959-1.168.273.409.52h.73l1.372.63.03.685-.38.493-1.49-.082 1.315.821 1.518 1.479 2.628 1.78.76.63.846.958 1.08 1.56.964.439.496.493 2.862 3.943.03-.028 2.715-7.037v-.821l-.467-.74-1.14-.821-1.605-1.479-.117-.246.35-.685.117-.766.321-.548 1.168-.548.497-1.396.409-.657.554-1.37-.408-1.369-.76-1.04.176-2.026 1.022-1.534.876-.876.7-1.26v-.657l.701-.547h6.833l1.139.93-.672 1.397.672 1.698.525-.082 1.198-1.014.7.055.322.301.788.165.409-.137.73-1.15.292-1.67.204-.658.555-.137-.117-1.971.03-.904.32-.958 1.11-1.78 1.11-2.738-.03-.603.526-.63 1.314-1.204.234-.85-.321-1.752.262-.575-.116-.438-.73-.52.233-.904 1.84-1.314.438-.794z"/>
        <path d="M76.745 159.872l-2.657-1.342-.818-.767-.35-1.122.175-1.096.7-.93.555-.357.03-.575-1.723-.246-.876.22-.672.41-.467-.164-.03-1.096.497-.74-2.628.083-.876.301-.525.657-.117.822-.73.63-1.022.164-1.577-.22-1.606-1.04-1.548.466-.496-.22-.117-.437-.292-.192-.555 2.108-.73.712-.934.466-1.139 1.588-.175 3.122-.263 1.15.117 1.341 1.956 5.532 1.723-.603.905-.027 2.687.192 1.723-.11 1.255.41.584 1.26.526 1.808 1.372.575 2.57-2.3 1.343-3.314.409-2.464.321-.767 1.051-1.205.643-.383.554-.904.614-.383.671.329.613-.247.438-.74z"/>
        <path d="M59.225 152.999l-1.402.192-.73-.52-.525-.877-1.022-.027-.964.41-4.263.904-1.577-.164-1.577.082.175.876-.029.876-.35.493-.526.11-1.314.821-1.752 1.588-.993-.219-.905-1.533-.671-.63-.76-.301-1.46 1.698.03.575-1.227.958-1.664-.465-.409 1.177-.409 3.204-.409.63-.029.766.497.603.671.438 1.431 2.163.117.712-1.635 9.42 1.722-.877.526 1.095.175 1.178.993-.137.934-.63 1.14-.055.788.74.32.63.41 1.478.7.028.847-.493 1.051.191 1.84-.41.38.492.934-.52 1.226-2.437 1.052-.876.963-.301 3.095 1.478.263-.219.059-1.834v-1.972l.204-1.232.409-1.205 1.08-.602 1.197-.329v-1.04l-1.956-5.532-.117-1.341.263-1.15.175-3.122 1.139-1.588.934-.466.73-.712.555-2.108z"/>
        <path d="M46.756 152.725l-.408-.082-.292-.548-.73-2.437-.876-1.533-1.198-.986-.905-1.342-.847-3.477-.876-1.397-2.16-5.065-.322-1.589.292-1.588 1.548-1.862.788-.493.847-1.26-.409-.985-1.197.767h-.671l-1.81-.438-2.892-1.068-1.08-.603-.934-.849-.555-1.15-.701-.93-1.11-.548-1.168.137-1.11.821-.612 1.287-.234 1.67-1.022.986-5.022 2.684-1.052.821-.963.52-1.11.877-2.861 1.369-.322.054-.759-.739-.409-.082-1.46.548-2.044 1.834-.554.22-2.366 2.163-1.927.465-.963-.027-1.431 1.287.058.766-.934 3.04-.175 1.068.233 1.697.643 2.218-.643 1.342-.117 2.026-.292 1.643-.087 1.643-.409.931.03.11 2.277-1.67 2.365.082.613 1.232.117 2.902.438 1.397.672.11.262-1.315.35-1.15.906-.027.175 2.3-.905 2.628.03.548.466 1.342 1.022.903.818 1.096 1.11 2.108 1.693 1.643 1.343.493 1.373-.055.963-.904.993-2.573 1.022-.712.905.712.41 1.26.73.437 1.43-.766 2.453.082.817 1.26.059 1.889 1.43.958.672 3.286-.905 1.314-.642 1.205 1.46.055 3.007-.384 1.519-.438.671-.465.789-.274.73-.055.73-.137 1.635-9.42-.117-.711-1.43-2.163-.672-.438-.497-.603.03-.766.408-.63.409-3.204.409-1.177 1.664.465 1.227-.958-.03-.575 1.46-1.698.76.301.671.63.905 1.533.993.22 1.752-1.589 1.314-.821.526-.11.35-.493.03-.876-.176-.876zM115.698 205.272l-.117-.274-2.044-.22-.555-.629-.964-2.273.146-.903-.584-.466-.116-.63-.41-.273-.73.383-.174-.301.116-1.287.263-.575-.934-2.109-.497-.74-1.547-.547-.234-.657.672-1.944 1.343-1.56.117-1.753-1.548-.52-1.401-.63-1.314.054-.322-.164.03-.821-.205-.74-1.664 1.67-.584 1.233-.526 2.546-.788.85-1.81-.083-.205.055v.821l.088.767.7 2.547.146 1.423.438 1.287.701 2.711-.175 1.506-1.197.877-.117.575.088 1.369-.41 2.491-.992 1.37-.847 2.245-.087 1.123.73.684.788.055 1.635-1.37 1.898-.574 1.051.493.964-.302.964-2.08.32-1.096.906-.602 1.11-.274 1.138-.137 2.19.493 1.022-.356.993-.22 1.139-1.533 1.635-.93zM202.947 68.032l-.642-.876.788-4.026-.146-2.19-3.007-7.585-.789-4.162-.029-1.807-.175-1.123-.993-1.835-.175-1.971-.409-2.054-.321-.986-1.402-1.396-1.693-1.205-3.183 2.245-1.285-.328-.76-.52-1.81.328-.759.301-.555.575-.554 2.273-1.694 5.175-.146.85.234 1.067-.41.876-7.387 2.985-1.606.93-2.044.193-1.285 1.232-.496 1.917 1.051.739 1.46-.438.876-.11.847.192.38.876.38 1.862.058.876-.818 1.589-.088.848.497.712 1.197-.137 1.051 1.862 2.365 3.286 1.782.74 3.883.766 2.073.082 1.752.603-.087.849-.584.712-.847.547-2.686 1.096-.468 1.752.263.958-.642.439-1.81-.822-3.855.301-1.372-.602-.584-1.451.204-1.67-.03-1.671-.554-1.588-1.08-1.013-1.402.356-3.124.246-1.256-.465-.964-1.287-1.518.246-1.548-.082-1.518-.685-1.46-.41-1.49-.028-1.839.794-1.226-.383-1.606.794-2.482 2.71-.935 1.507-.671.767-.847.41-1.46.083-.73 1.642-.146 1.972.088 2.163.7 1.972 1.14 1.396.174 1.807-.671 1.698-1.11 1.287-.233 1.698-.818 1.56.321.685.76.41.554.549.526.657 1.401-.274 1.431.41.876 1.123.497 1.424.146 1.287v4.135l.905.63 2.803-.52 1.577.602.525 1.78.117 2.135-.175.767-.73 1.451-.117.822.584.602.876.301 1.11 1.342.847 1.561 1.518.52 3.446.657 3.854-.191.964-.22.876-.383.7-1.588.614-.575 1.606-.657.204-.849-.321-.903-.964-1.424 1.431-1.014 12.001 5.86 4.088 2.656.76.329 1.313-.876 3.066-.11 3.008-1.478 1.606-.302 1.694.438h1.693l.146-.63-.555-.711-.7-1.506-.41-1.616-.174-1.67-.76-1.698-5.051-3.943-1.022-1.506.146-.849 2.745-1.506-.03-1.533v-3.615l-.496-1.56-1.577-1.014-1.752-.876-.292-2.054-.759-1.78-2.628-1.177.058-.74 1.256-1.888.35-.959.818-3.067.73-1.944.7-.63 1.87-.602.788-.657 1.139-1.67 2.277-1.397.964-1.232.496-.384z"/>
        <path d="M220.117 86.542l-1.694-.192-.233-.766-.176-1.862.234-5.97-.146-.876-.526-.712-2.57-2.71-1.226-1.67-1.343-1.507-1.577-1.287-3.358-1.698-3.358.931-.496.384-.964 1.232-2.277 1.396-1.139 1.67-.788.658-1.87.602-.7.63-.73 1.944-.818 3.067-.35.959-1.256 1.889-.058.74 2.628 1.177.76 1.78.291 2.053 1.752.876 1.577 1.014.496 1.56v3.615l.03 1.533-2.745 1.506-.146.85 1.022 1.505 5.051 3.943.76 1.698.175 1.67.409 1.616.7 1.506.555.712-.146.63 2.599.219 8.556-.356 2.219-.384 2.073-.986 4.497-2.847.905-.794.35-1.068-.146-3.45.234-2.246-1.752-1.15-1.664-2.793-.906-.63-1.05-.438-.935-.684-.789-.986-.496-1.123.03-1.15 1.78-3.067-.32-2.272zM97.535 211.953l.847-2.245.993-1.37.409-2.491-.088-1.37.117-.574 1.197-.877.175-1.506-.7-2.71-.439-1.288-.146-1.423-.7-2.547-.088-.767v-.821l-.76.986-.7.246-.876-.164-.876.027-1.46.657-2.978 1.89-2.307 1.013-.643.438-1.022 1.37-.671-.028-.497-.85-.613-.684-.847-.082-.554.575-.35.74-.088.903.788 1.479.088.876.292 1.013.759 1.314 1.46 1.424.788.411v1.013l-.292.986-.993 1.232-1.372 1.095-.993 1.26-1.255.958-2.395.548-.847-.137.059-.712-.497-.849.526-.903.088-.959-1.519-1.04-1.314-1.534-2.861-1.642-1.519.054-1.343.904-.146.356-.934-.028-.964-.739-.905-.055-.73.11-1.577-.082-.263.63.146.876-1.401 1.287-.438.191-.497-.41-.204-1.342.233-1.725-1.168-1.397-1.693-.876-2.716 7.037-.029.028.117.137.934 2.136.234.027 3.445-2.547.964-.3.818-.795.525-.11-.555 1.014-2.014.766-.76.712v.931l-.963-.575-.292.192-.438 1.616.087.602 1.402 2.601.847.657 2.453-.903.584-.849.671-1.917.117.849-.438 1.424.642 1.095.41.028 1.109-.575.993-1.068 1.343 1.013-.234.958-.263-.903-1.022-.302-.32.137-.848 1.588-.671-.3-.905-.165-2.395-.11-.934.767.146 1.342 1.285 1.123.32.575 2.775.985 1.401.082-.38-.93 1.227.602.993-1.095-.146-.685.35-.575.584-.301.555.137.35-.384.439.137 1.05-.657-.904 1.068-.818-.027-.7.3-.147.302.059 1.205.817.93-.993.22-.846.356-.643.821-.35-.739-.438.164-1.635.028-.584.11-.117.355.525 2.328.088 1.204.263 1.287.934.055 1.168-.712.672.767-.847.137.146.41 1.606 1.233 1.11.383 1.722 1.123 1.402.027 1.723-1.122 1.372-.52 1.197-.055.672-.384.788-1.205.322-.164.846.794 1.665.63 3.913-2.054-.03-1.78.468-.191 1.46-.11 1.11-1.917.379-.136 3.183-.493.38-.247-.06-.575-.408-1.122 1.548-1.37.175-.3.321-1.589.467-1.177.643-3.012z"/>
        <path d="M99.112 191.608l-.555-1.862-.117-1.123.117-3.313.117-2.82.642-1.452.38-3.587.38-1.451-.555-1.862-.964-.41-.058-.439-.643-.657-.671.055-.964.438-1.226.246-.76-1.451-.554-1.451-.613-.575-.526-.082-.905.246-.584-.027-.701-.822-1.43-1.369-.468.11-1.606.821h-1.139l-.584-.876.263-1.15-.204-.575-.789-.274.088-.52-.409-.274-.496.11-.41-.247-.437.794-1.84 1.314-.233.904.73.52.116.438-.262.575.32 1.753-.233.849-1.314 1.205-.525.63.029.602-1.11 2.738-1.11 1.78-.32.958-.03.904.117 1.971-.555.137-.204.657-.292 1.67-.73 1.15-.409.138-.788-.165-.322-.3-.7-.056-1.198 1.014-.525.082-.672-1.698.672-1.396-1.139-.931h-6.833l-.7.547v.657l-.701 1.26-.876.876-1.022 1.534-.176 2.026.76 1.04.408 1.37-.554 1.369-.41.657-.496 1.396-1.168.548-.32.548-.118.766-.35.685.117.246 1.606 1.479 1.139.821.467.74v.821l1.693.876 1.168 1.397-.233 1.725.204 1.342.497.41.438-.191 1.401-1.287-.146-.876.263-.63 1.577.082.73-.11.905.055.964.74.934.027.146-.356 1.343-.904 1.519-.054 2.861 1.642 1.314 1.534 1.519 1.04-.088.959-.526.903.497.85-.059.711.847.137 2.395-.548 1.255-.958.993-1.26 1.372-1.095.993-1.232.292-.986v-1.013l-.788-.41-1.46-1.425-.76-1.314-.291-1.013-.088-.876L83.87 199l.087-.904.35-.739.555-.575.847.082.613.685.497.849.671.027 1.022-1.369.643-.438 2.307-1.013 2.978-1.89 1.46-.657.876-.027.876.164.7-.246.76-.986zM118.18 177.15l-1.168-.082-.906.493-.788.657-.76.274-.437.438-1.402 1.944-1.197 1.177-2.044 1.507-.905 1.204-1.08.877-.614-.302-.73-1.56-.817.547-.643 1.37.205.739-.03.821.322.164 1.314-.054 1.401.63 1.548.52-.117 1.752-1.343 1.56-.672 1.945.234.657 1.547.548.497.74.934 2.108-.263.575-.116 1.287.175.3.73-.382.409.273.116.63.584.466-.146.903.964 2.273.555.63 2.044.219.117.274.233.054.146.137.088.082 1.139-.191 1.197-.055 1.606 1.287 1.197-.41 2.044 1.56.642-.356-.262-1.342.146-1.314 1.08-1.479-.292-2.382-.76-2.136 1.052-3.45v-1.862l-.964-3.313.789-.52.817.082 1.606-.165.847-2.437v-1.26l-.292-1.259-.613-1.013-1.022-.52-.876.219-.7.575-.994.137-.934-.466-.905-.712-.818-.821-.7-.876-.935-2.081-.263-1.04z"/>
        <path d="M137.977 187.637l-.496-1.862-.263-.438-.876.658-1.11.11-.905 1.286-.934.246-2.015.137-.38.877-.233 2.19-1.051 1.534-1.694-1.096-.818-1.78-1.606.165-.817-.082-.789.52.964 3.313v1.862l-1.051 3.45.759 2.136.292 2.382-1.08 1.479-.146 1.314.262 1.342-.642.356-2.044-1.56-1.197.41.029 1.506-.204 1.67 1.46.767 3.533.055 1.314.657.204.904.38.794.817.63.906.355.087-.657.935-1.588-.059-1.232.321-.356.876-1.397.292-1.15-.408-.821.292-.657.992-.329.906.274.496 1.177.613-.027.438-.465 1.139-.548.7-1.068h.643l.701.329.409-.685.438-1.944 1.022-1.56 1.372-1.48.205-1.752-.468-.767.176-.876 1.518-.904-.088-.821-.525-.685-.38-1.533-.496-.767-.847-.766-.934-1.123-.35-1.424zM148.43 87.72l-1.488-.493-1.08-1.37-1.957-.246-1.343-1.177.496-.712 1.051-.274.321-.986-.38-3.094.439-1.999-.497-3.614-2.51-2.793-1.87-.52-1.693-.685-.613-.876-.789-.658-1.723-.63-.788-.547-.496-.849.087-.93.467-.85.03-.985-.876-.439-3.417 1.15-2.832 2.246-1.694.164-.817 1.342-1.986.849-.7-.329-.468-.684-.847-.63-.934-.438-1.781-.356-1.519.93-.409.822-.116.931-.672.383-.876-.3-1.869-.028-.38 1.369.41.685.029.739-.584.684-.789.439-.817-.11-1.285-1.396-.847-.52-1.781-.494-.03-.739 1.11-1.56-.292-.603-.525-.41-1.285-.028-.584-.165-1.139-.575-.38.795-.496.492-1.694 1.123-.496.657-.263.794-.467 2.328-.234.575-1.11 1.04-2.043.85-2.687.629-2.686-.74-.526-.054-1.489 1.944-1.08.575-.321 1.342-.35.356-1.14.383-.467.247-.496.575-.205.657-.116 2.163.029.657.409 1.315-.088 1.204-.321.877-.35 2.19.145.876.789.603.613.794.438.876.818-.11.642-.739.496-.876 1.285-1.451 2.891-2.328 1.723-.41.642.465.321.794.76.164 1.78-.876.935-.191.935.164.525-.41-.117-1.014.789-.356.876.055.759.328.204.493.176 2.109.408.11.847-.275 1.343 1.205.059 2.081-.321.931.525.575 1.752.685.73.493-.058.903-.584.822-1.577 1.205-.672.848-.788.548-.584.712 1.11 1.506 1.752.794 1.81.22 3.62-.056 1.169.85.496 4.161-.058.959-.613.547-.76.055-.525.438.496.712.876.247.526.465-.175.74.32.63.76.41.146.821-1.139 1.397-.204 1.04-1.343 1.014-.205.958 1.227 1.588-.322 1.15.176.411.613-.192.584.137 2.307-.246 1.985.383.526-.41.759-1.123.876.356.467.876.76-.164.671-.356.38.684.584.329.788-.055.584.493 1.664.465.818-.41.934-1.835 1.49-.246.817.794.205 1.232.788.684.964.603.292 3.04.642 2.518 1.927-1.122 1.373-2.081.671-.657.789.328 2.19.63.992 1.342 1.402 1.697.964-.11 1.022-1.122.788-1.424.613-1.56.876-1.123.497-1.479.116-1.588-.934-1.396-1.168-1.26-.993-1.533-.029-3.724.672-.52.058-.904 1.022-1.479-.234-.876.146-1.013-.029-1.972.935-3.423-.643-1.971.438-1.917 1.197-1.451.906-.438.584-.822.087-.876.234-.74-.526-.656-.555-.548-.759-.41-.321-.685.818-1.561.233-1.698zM102.44 144.319l-.7.74-.905.601-.059.986-.35-.191-.73 1.588-.409.465-1.693-1.862-1.227-1.971-2.628-2.027-.555-1.204-.525-2.465-.643-1.725-.613-1.068-.7-.575-.497-.082-1.518-.849-1.052.22-1.05 1.396-.964 3.614-.38 2.684-.234.766-.496.63-.818.164-2.686-.63-3.387-.191-2.395-.575-2.452-.986-1.256-1.287-.964-.41-1.08 1.067-2.774 3.697-.175.849.73 1.478 1.022 1.315.993.958 1.635 1.068.204 1.56-.496.74.029 1.096.467.164.672-.41.876-.22 1.723.246-.03.575-.554.356-.701.931-.175 1.096.35 1.122.818.767 2.657 1.342 1.11.356 1.956-.384.759.356-.175 1.014 1.226 1.998 1.548 1.753.409.246.496-.11.409.275-.088.52.789.274.204.575-.263 1.15.584.876h1.139l1.606-.821.467-.11 1.431 1.37.7.82.585.028.905-.246.526.082.613.575.555 1.451.759 1.451 1.226-.246.964-.438.671-.055.643.657.058.438.964.411.555 1.862-.38 1.451-.38 3.587-.642 1.452-.117 2.82-.117 3.313.117 1.123.555 1.862v.356l.204-.055 1.81.082.79-.849.525-2.546.584-1.232 1.664-1.67.643-1.37.817-.547.73 1.56.613.302 1.08-.877.906-1.204 2.044-1.507 1.197-1.177 1.402-1.944.438-.438.759-.274.788-.657.906-.493 1.168.082.817.794.935.493 1.05.904.79.383.67-.22.06-1.177.379-1.04 3.241-1.862 1.022-1.78.409-2.08.058-.85.76-1.67-.614-.438-.934.137-.789-.466-.292-1.013-.38-3.094.03-3.012-.088-.931-.496-.931-.73-.767-.73-1.15-.292-1.314-.088-1.37.146-1.478-.32-.082-.41-.028-3.445.356-4.293-.41-.817.082-4.935 1.78-1.256.794-.671.684-.818.548-.788.192.029-1.068.263-1.04.759-1.562.35-3.806-.116-1.697-1.198-2.218.614-1.698.204-.876-.234.027-.846.164-.935-.11-1.489.056z"/>
        <path d="M192.727 114.636l-4.088-2.656-12.001-5.86-1.43 1.014.963 1.424.321.903-.204.849-1.606.657-.614.575-.7 1.588-.876.384-.964.219-3.854.191-3.446-.657-1.518-.52-.847-1.56-1.11-1.343-.876-.3-.584-.603.117-.822.73-1.45.175-.768-.117-2.135-.525-1.78-1.577-.603-2.803.52-.905-.63V97.14l-.146-1.287-.497-1.424-.876-1.122-1.43-.411-1.402.274-.234.739-.087.876-.584.822-.906.438-1.197 1.451-.438 1.917.643 1.971-.935 3.423.03 1.972-.147 1.013.234.876-1.022 1.479-.058.903-.672.52.03 3.725.992 1.533 1.168 1.26.934 1.396-.116 1.588-.497 1.479 1.431.74 1.197.93.38 1.78 1.197 1.26 1.606.328 1.664-.027 1.548-.466.672.466.438.575-.117.767-.35.903-1.023 1.451-.584.603-.876.301-1.197 1.725-.409 1.068.468 1.26.613.876.175 1.095-.117 1.26.526 1.068 2.044 1.122 1.489.438h2.307l2.219-.41 1.548-.493 1.518.055 2.89 1.287 1.315.876.905 1.369 1.314.082 1.84-.137 1.752-.52 1.576-1.287 1.402-1.506 1.606-1.232 1.752-1.014.672-.63 1.255-1.642.555-.931 1.168-1.479 5.636-1.451 3.854-2.026.818-1.67-.03-.987-.32-1.615.145-1.56-.73-2.465-.38-.712-.233-.767-.263-1.944.175-1.67-.204-1.37-.526-1.259z"/>
        <path d="M146.3 123.673l-.614 1.56-.788 1.424-1.022 1.123-.964.11-1.402-1.698-.992-1.342-2.19-.63-.789-.328-.671.657-1.373 2.08-1.927 1.123-.642-2.519-.292-3.04-.964-.602-.788-.684-.205-1.232-.817-.794-1.49.246-.934 1.835-.818.41-1.664-.465-.584-.493-.788.055-.584-.329-.38-.684-.672.356.059.52-.643.767-.438.848-.554 2.793-.059 1.616.117 2.547-1.139 5.257-1.022 3.094-.847 1.451-1.08 1.26-3.124 1.643-3.446.986-3.504.575-.204.876-.614 1.698 1.198 2.218.116 1.697-.35 3.806-.76 1.561-.262 1.04-.03 1.069.79-.192.817-.548.671-.684 1.256-.794 4.935-1.78.817-.082 4.293.41 3.445-.356.41.028.32.082 1.227.329 1.577.164 2.014.63 1.723.219.847.246 1.635.931 2.044.383 1.986.959 2.277.548.555.657 1.139.657.613.493.76.3.291-.437-.146-.904-1.168-2.683-.584-1.862.38-1.835 1.372-1.205 3.212-.41 4.935 1.752 1.781.41 2.687.083.876-.22 4.672 3.67.847-.74 3.533-2.518.496-.466-.233-1.615-.088-1.342-1.314-1.725.76-2.054.583-.274 1.781.767 2.132.465.672-.054.992-.657.672-1.123-.905-1.37-1.314-.875-2.891-1.287-1.518-.055-1.548.493-2.22.41h-2.306l-1.49-.438-2.043-1.122-.526-1.068.117-1.26-.175-1.095-.613-.876-.468-1.26.41-1.068 1.196-1.725.876-.301.584-.603 1.022-1.45.35-.904.118-.767-.438-.575-.672-.466-1.548.466-1.664.027-1.606-.328-1.197-1.26-.38-1.78-1.197-.93-1.43-.74zM193.428 35.118l-.496-3.669-.76-1.67-.671-.52-.818.027-.905-.22-.876-.437-.818-.055-1.576.493-1.052-.192-.262-.63-.643-2.601-.642-1.013-1.022-.329-1.08.302-2.278.958-1.197.328-1.665.74-.438.328-.642 1.342-2.132.986-2.978-.986-.146.192-.73.52-.497.027-5.168-.63-1.752.411h-.876l-7.096-.848-.146.63-.438.191-.934 1.588-1.08.904-1.168.657-1.314.301-.964-.082-.642-.74-.76.466-.554.028-1.198-.63-.671-1.178-.438-1.341-.467-.466-3.738.192-1.606-.22-1.723.055-2.599.411-.32.657-.205 1.753.058 1.67 1.285.849 1.956.027.526.603.292.767 1.256 2.3.262 1.204.438.274.672-1.78.73-1.15 1.226-.684 1.431-.274 1.46.22 2.161.684.088 1.67.204.93 1.84 1.26.32.712-.028.904.204.794 1.372.466 1.548.191 1.022 1.342.058 2.382-.584 1.205.35.575 1.052.055.993-.164.409 1.396h1.518l.847-.602 1.139.137.642 2.272-.058.904-.584 2.054-.876 1.369-.322 1.56.41.384 1.985.192.555 1.478 1.022 1.315 1.46.821-.234.575-2.132 2.054-.38.712-.233 1.834-.058.356 1.489.028 1.46.41 1.518.685 1.548.082 1.518-.246.964 1.287 1.256.465 3.124-.246 1.402-.356 1.08 1.013.555 1.588.029 1.67-.204 1.67.584 1.452 1.372.602 3.854-.3 1.81.82.643-.438-.263-.958.468-1.752 2.686-1.096.847-.547.584-.712.087-.85-1.752-.602-2.073-.082-3.883-.766-1.782-.74-2.365-3.286-1.051-1.862-1.197.137-.497-.712.088-.848.818-1.589-.059-.876-.38-1.862-.379-.876-.847-.192-.876.11-1.46.438-1.051-.74.496-1.916 1.285-1.232 2.044-.192 1.606-.931 7.388-2.985.409-.876-.234-1.068.146-.849 1.694-5.175.554-2.273.555-.575.76-.3 1.81-.33.759.52 1.285.33 3.183-2.246z"/>
        <path d="M160.607 66.635l.234-1.834.38-.712 2.131-2.054.234-.575-1.46-.821-1.022-1.315-.555-1.478-1.986-.192-.409-.383.322-1.561.876-1.37.584-2.053.058-.904-.642-2.272-1.14-.137-.846.602h-1.518l-.41-1.396-.992.164-1.051-.055-.35-.575.583-1.205-.058-2.382-1.022-1.342-1.548-.191-1.372-.466-.204-.794.029-.904-.321-.711-1.84-1.26-.204-.931-.088-1.67-2.16-.685-1.46-.219-1.432.274-1.226.684-.73 1.15-.672 1.78-.438-.274-.262-1.204-1.256-2.3-1.197.027-1.11.356-.584 1.095-.788 2.52-.876.876-4.263 1.67-1.87 1.369-.262 1.15.263 2.547-.117 5.449.526 1.643-.03 1.834.935 2.328.087 1.04-1.08.274-1.372.712-1.11.301-.76.959-.379 1.26-.175 1.259.38 1.314 1.693 1.506 1.694-.164 2.832-2.246 3.417-1.15.876.439-.03.985-.467.85-.087.93.496.849.788.548 1.723.63.789.657.613.876 1.693.684 1.87.52 2.51 2.794.497 3.614-.438 1.999.38 3.094-.322.986-1.051.274-.496.712 1.343 1.177 1.956.247 1.08 1.369 1.49.493.496-.11 1.11-1.287.671-1.698-.175-1.807-1.139-1.396-.7-1.972-.088-2.163.146-1.972.73-1.642 1.46-.083.847-.41.671-.767.935-1.506 2.482-2.71 1.606-.795 1.226.383 1.84-.794z"/>
        <path d="M107.61 24.001l-.38 2.738.846 10.707.526 1.314-.088 1.56.672 1.37.35 1.314.146 1.342.41 1.534-.176.684-.905 2.328.496.63.818.41 1.343 1.15.292 1.534-.73.273-.76-.219-.437.466-.117.849-1.606 1.424-.38.219-.496-.356h-1.81l-1.431.684-.876 4.655.847 1.616-.146.849.058.93-.204 1.205-.38 1.15 1.139.575.584.165 1.285.027.525.41.292.603-1.11 1.561.03.74 1.781.492.847.52 1.285 1.397.817.11.789-.439.584-.684-.03-.74-.408-.684.38-1.37 1.868.028.876.301.672-.383.116-.93.41-.822 1.518-.931 1.78.356.935.438.847.63.467.684.701.329 1.986-.85.817-1.34-1.693-1.507-.38-1.314.175-1.26.38-1.26.759-.958 1.11-.301 1.372-.712 1.08-.274-.087-1.04-.935-2.328.03-1.834-.526-1.643.117-5.45-.263-2.546.263-1.15 1.869-1.37 4.263-1.67.876-.876.788-2.519.584-1.095 1.11-.356 1.197-.027-.292-.767-.526-.603-1.956-.027-1.285-.849-.058-1.67.204-1.753.321-.657 2.6-.41 1.722-.055 1.606.219 3.738-.192.467.466.438 1.341.671 1.178 1.198.63.554-.028.76-.465.642.739.964.082 1.314-.301 1.168-.657 1.08-.904.934-1.588.438-.192.146-.63-.876-.109-6.424-1.999-.876-.52-1.138-1.753-.468-.547-1.08-.85-.584-.273-1.548-.082-.992.219-2.628-2.437-.935-1.068-1.43-.548-.818-.684-2.22-1.506-6.16-.904-.818.082-.847.384-8.79 5.586-.758.246h-.847l-2.54-.493-.555.11-1.46 1.834-1.14 1.068-.525.274zM36.07 18.415l2.043-.11 1.606.274.818-.438.876-.191 1.489 1.369 1.518.93 1.665.658 1.723.548.817.575.876.438.905.082.76-.466.817-1.314.643-.22.408.576-.087.794-.35.767-.555 2.71-.146 1.041.817 1.479.555 1.615-.204 1.89-.322 1.944.76 4.162-.088 1.971-1.08.603-1.665-.575-1.752.465-.876 1.616.234 9.994-.818 4.053-1.08 2.437-.175 2.464.788.959 1.08.383 1.08-.712.848-1.095 4.613-2.218 1.957.027.642.658.526-.055.467-.301.146-12.213.876-3.094 3.591.602 7.417-.328 1.227-1.342-.117-2.026-.497-1.917.146-1.698 1.14-.821 1.255-1.698.905-1.533 1.226-1.014 5.46-.547 1.782-.685.7-1.396-.437-4.464.263-.711 1.518-.931 1.781-.22.935.384.613-.164.409-2.41.35-.329h1.139l1.43.356.789.877 2.365.602h2.365l1.87-1.123 1.226-1.013-2.015-3.806-4-4.545-3.417-3.396-1.635-.958-1.752-.411-.467.11-1.402.821-.788-.274-13.783-5.695L70.03 1l-3.592.657-.671.356-.672 1.342-.35.41-1.84.85-3.475-.165-2.482.466-1.401-.082-.555-.274-.555-.548-.555-.246-.759.082-7.738 1.971-1.314.548-1.11.849-3.825 3.833-1.401.493-1.577.055v6.216z"/>
        <path d="M107.171 24.083l-1.81.028-.789-.11-.759-.301-1.664-1.451-1.46-1.753-.613-1.15-1.227 1.013-1.869 1.123h-2.365l-2.365-.602-.788-.877-1.431-.356h-1.139l-.35.329-.41 2.41-.612.164-.935-.384-1.781.22-1.518.93-.263.712.438 4.464-.701 1.396-1.781.685-5.46.547-1.227 1.014-.905 1.533-1.256 1.698-1.139.821-.146 1.698.497 1.917.117 2.026-1.227 1.342-7.417.328-3.591-.602-.876 3.094-.146 12.213 1.022-.192 1.898.849 2.277-.63.176-.63.438-.438 1.635.274 1.372-.22.584.494.35.766 2.132.959 1.431.328 3.708-.274.789-.328 1.81.328.905.33 1.168 1.177-.116 1.752-.614 1.972.468.794.963.383 1.898 3.122.234 3.97 1.051 1.424 1.869 3.313.38 1.725 1.138-.383.35-.356.322-1.342 1.08-.575 1.49-1.944.525.055 2.686.739 2.687-.63 2.044-.849 1.11-1.04.233-.575.467-2.328.263-.794.496-.657 1.694-1.123.496-.492.38-.795.38-1.15.204-1.204-.058-.931.146-.85-.847-1.615.876-4.655 1.43-.684h1.811l.496.356.38-.22 1.606-1.423.117-.85.438-.465.759.22.73-.274-.292-1.534-1.343-1.15-.818-.41-.496-.63.905-2.328.175-.684-.409-1.534-.146-1.342-.35-1.314-.672-1.37.088-1.56-.526-1.314-.846-10.707.38-2.738zM236.148 21.81l-.643.028-.613-.493-.76.301-1.664-1.013-2.044.575-1.43-.356-.497-.246-1.139-.931-3.387-2.163-2.715-1.15-7.359-1.945-11.826.055-4.438-.548-2.336.22-12.44 2.792-1.021.439-4.556 2.71-.438.439-.292 1.177-1.138.602-.818.822-4.117 5.175 2.978.986 2.132-.986.642-1.342.438-.328 1.665-.74 1.197-.328 2.277-.958 1.08-.302 1.023.329.642 1.013.643 2.601.262.63 1.052.192 1.576-.493.818.055.876.438.905.219.818-.028.671.52.76 1.671.496 3.67.526 1.697 1.693 1.205 1.402 1.396.321.986.409 2.054.175 1.971.993 1.835.175 1.123.03 1.807.788 4.162 3.007 7.585.146 2.19-.788 4.026.642.876 1.197.191 3.358-.93 3.358 1.697 1.577 1.287 1.343 1.506 1.227 1.67 2.57 2.711.525.712.146.876-.234 5.97.176 1.862.233.766 1.694.192.934-.11.935-.273.73-.63.584-.794.233-.904-.175-2.163.321-2.08 1.373-1.59 5.723-2.135 1.489-1.205.73-1.78-.146-2.19.117-2.19.496-.85.643-.739.992-1.917 2.424-3.203-.117-.959-.467-.903-.7-.85-.994-.355-.817.137-.643-.22.117-1.012 1.431-3.067.117-1.123-.613-2.601 1.022-8.735-.555-3.916 2.628-2.656 1.051-1.56.613-1.562-.233-1.615-1.344-1.013-1.08-1.26-.467-1.643.525-5.038z"/>
        <path d="M57.736 58.503l-.526.055-.642-.658-1.957-.027-4.613 2.218-.847 1.095-1.08.712-1.081-.383-.788-.959.175-2.464 1.08-2.437.818-4.053-.234-9.994.876-1.616 1.752-.465 1.665.575 1.08-.603.088-1.971-.76-4.162.322-1.944.204-1.89-.555-1.615-.817-1.479.146-1.04.554-2.711.35-.767.088-.794-.408-.575-.643.219-.817 1.314-.76.466-.905-.082-.876-.438-.817-.575-1.723-.548-1.665-.657-1.518-.931-1.49-1.37-.875.192-.818.438-1.606-.273-2.044.11-.73 5.558-3.854 6.407-1.577 1.56-5.314 4.19-.088.274.263 6.49-.643 3.423v1.122l.614 1.89.116.903-.408.85-.818 1.259.146 1.478.993 1.315.263 1.56-.292.302-1.256.794-.526.602-1.693 3.012-.935 2.985.059.575.35.712 4.41 6.49 1.021.575h.03l.175-.192 2.219.274 2.16 1.424 2.746 1.314 1.284.164 6.658-.191 2.54-.384 2.453.685 2.95 2.026 1.576.52.059.63-.789 4.655-.233 1.78-.614.657-.029.466-2.832 1.67-.905 1.67-.146 1.944.087.986.38.904 1.168 1.095-.146 1.89-.38 1.916.613.548 1.665.11.292-.713v-1.04l.263-.904.846-.301 2.833-.63.817-.301.701-.52.613-1.725-.759-1.753-1.139-1.588-.146-.876.088-.904-.117-1.944.409-1.725.76-.301 1.693.246 1.635-.821 1.723-.52.642-.548-.525-1.698-1.022-1.314 1.168-1.561-.059-1.04-.525-1.808-.993-.438-.205-.438-2.598-.52-1.782-.767-1.547-1.232.409-1.643 3.328-1.56 7.184-1.534 1.78.054 1.46.904.322 1.944.876 1.643.788.52.38.877-.117 1.999.03 1.013.32.93.643.22h2.453l1.606-.301 4.205-1.89 1.693-.301.613-.52 1.227-1.452.847-.027.759.493-.234-3.97-1.898-3.122-.963-.383-.468-.794.614-1.972.116-1.752-1.168-1.178-.905-.329-1.81-.328-.789.328-3.708.274-1.43-.328-2.132-.959-.35-.766-.585-.493-1.372.219-1.635-.274-.438.438-.176.63-2.277.63-1.898-.85-1.022.193zM270.866 77.37l-1.43.109-3.534.821-.788-.11-1.402-.602-.817.11-.205 1.478.03 1.78-.322 1.807-1.284 3.478-.847 3.478-1.227.711-1.664-.383-1.402-.958-1.372-1.26-1.664-.767-2.103-.3-2.015.465-1.284 1.643-1.431 1.369-.905.055-.584.465-.438.931-.672.794-1.752.822-1.956.219-1.782.438-1.372 1.232-2.482 3.45-3.095 2.3-3.913-.219-.234 2.246.146 3.45-.35 1.068-.905.794-4.497 2.847-2.073.986-2.22.384 2.278 4.463.613.575 1.636.41 1.401 1.342.876 1.89.438.766.263.795-.088 1.807.847 1.533 1.548.767 1.022 1.342.175 1.807-2.394 5.34-.176 1.807.117.958-.204.849-1.635 1.424-6.25 7.995-1.576 1.506-1.343 1.67-.205.822 1.08 2.766.994 1.862.671.712.789.082 1.664-2.081.76-.356.875.41.613.767 2.395 2.382 1.197 2.985v1.725l.321 1.753.613 1.369.322 1.342 1.518-1.589 1.43-2.135-.35-1.534.176-1.643.876-1.698 2.394-3.56.905-1.04.146-.356-.38-2.08.117-1.644.993-1.506.205-1.068-.41-2.108-.087-1.177.205-1.123.525-.849.555-.22 1.43.083.818-1.095.964-.767-.7-2.574-.205-.383 2.774-.356 1.489.575.38-.11 2.482-1.396.408-.493.76-1.89.262-.136.964.082.321-.164.526-.767.263-1.095.496-4.902-.175-.958v-1.04l.496-1.233 1.11-2.163.233-1.944-.438-1.315-.642-.657 1.577-.849 1.489-1.67 1.694-.767 1.898-.328 1.606-.657.642-1.862.117-1.67.292-1.753.525-1.479-1.314-2.355.76-1.478-.322-2.492.438-.876.789-.329 1.927-.22 1.518-.985.672-1.287-.175-1.506.525-1.615.789-4.902.876-3.258.642-1.506 4.263-6.517zM121.187 119.976l-.467-.876-.876-.356-.76 1.122-.525.411-1.985-.383-2.307.246-3.417 5.148-1.284-.63-2.307-2.327-1.46-.493-4.526.192-.584.3-.088.713.292 18.565.76 1.56 1.109.138 1.49-.055.934.11.846-.165.234-.027 3.504-.575 3.446-.986 3.124-1.643 1.08-1.26.847-1.45 1.022-3.095 1.139-5.257-.117-2.547.059-1.616.554-2.793.438-.848.643-.767-.059-.52z"/>
    </g>
</svg>
